{"title":"The Last Airbender *2010*[BluRay][1080p][ENG, POL]","uid":5982600,"size":4376125743,"categoryP":"video","categoryS":"hd___movies","magnet":"?xt=urn:btih:c97ba44b0b19b56cdfa26a65dc0a8da5d1b7aaab&amp;dn=The+Last+Airbender+%2A2010%2A%5BBluRay%5D%5B1080p%5D%5BENG%2C+POL%5D&amp;tr=udp%3A%2F%2Ftracker.openbittorrent.com%3A80&amp;tr=udp%3A%2F%2Fopen.demonii.com%3A1337&amp;tr=udp%3A%2F%2Ftracker.coppersurfer.tk%3A6969&amp;tr=udp%3A%2F%2Fexodus.desync.com%3A6969","seeders":0,"leechers":0,"uploader":"albedo040","files":1,"time":1290634453,"description":"The Last Airbender *2010*[BluRay][1080p][ENG, POL]\n\nGeneral information:\nCountry: USA\nRelease: 1 July 2010\nGenre: Action, Adventure, Family, Fantasy \nDirector: M. Night Shyamalan\nScreenplay: Michael Dante DiMartino\nOriginal Music: James Newton Howard \nCinematography by: Andrew Lesnie \nDuration: 1h 43mn\nLanguage: English, Polish\nSubtitles: English, Polish\nRating: 5.8/10 - 3993 votes \n\nCast:\nNoah Ringer  ...  Aang  \nDev Patel  ...  Prince Zuko  \nNicola Peltz  ...  Katara  \nJackson Rathbone  ...  Sokka  \nShaun Toub  ...  Uncle Iroh  \nAasif Mandvi  ...  Commander Zhao  \nCliff Curtis  ...  Fire Lord Ozai  \nSeychelle Gabriel  ...  Princess Yue  \nKatharine Houghton  ...  Katara's Grandma  \nFrancis Guinan  ...  Master Pakku  \nDamon Gupton  ...  Monk Gyatso  \nSummer Bishil  ...  Azula  \nRandall Duk Kim  ...  Old Man in Temple  \nJohn D'Alonzo  ...  Zhao's Assistant  \nKeong Sim  ...  Earthbending Father  \n\nPlot:\nThe story follows the adventures of Aang, a young successor to a long line of Avatars, who must put his childhood ways aside and stop the Fire Nation from enslaving the Water, Earth and Air nations. \n\nSpecifications:\nGeneral\nFormat                           : Matroska\nOverall bit rate                 : 5 653 Kbps\n\nVideo\nFormat                           : AVC\nFormat/Info                      : Advanced Video Codec\nFormat profile                   : &lt;a class=&quot;__cf_email__&quot; href=&quot;/cdn-cgi/l/email-protection&quot; data-cfemail=&quot;430b2a242b030f776d73&quot;&gt;[email&amp;#160;protected]&lt;/a&gt;&lt;script cf-hash='f9e31' type=&quot;text/javascript&quot;&gt;\n/* &lt;![CDATA[ */!function(){try{var t=&quot;currentScript&quot;in document?document.currentScript:function(){for(var t=document.getElementsByTagName(&quot;script&quot;),e=t.length;e--;)if(t[e].getAttribute(&quot;cf-hash&quot;))return t[e]}();if(t&amp;&amp;t.previousSibling){var e,r,n,i,c=t.previousSibling,a=c.getAttribute(&quot;data-cfemail&quot;);if(a){for(e=&quot;&quot;,r=parseInt(a.substr(0,2),16),n=2;a.length-n;n+=2)i=parseInt(a.substr(n,2),16)^r,e+=String.fromCharCode(i);e=document.createTextNode(e),c.parentNode.replaceChild(e,c)}}}catch(u){}}();/* ]]&gt; */&lt;/script&gt;\nFormat settings, CABAC           : Yes\nFormat settings, ReFrames        : 3 frames\nMuxing mode                      : Container profile=&lt;a class=&quot;__cf_email__&quot; href=&quot;/cdn-cgi/l/email-protection&quot; data-cfemail=&quot;5e0b3035303129301e6a706e&quot;&gt;[email&amp;#160;protected]&lt;/a&gt;&lt;script cf-hash='f9e31' type=&quot;text/javascript&quot;&gt;\n/* &lt;![CDATA[ */!function(){try{var t=&quot;currentScript&quot;in document?document.currentScript:function(){for(var t=document.getElementsByTagName(&quot;script&quot;),e=t.length;e--;)if(t[e].getAttribute(&quot;cf-hash&quot;))return t[e]}();if(t&amp;&amp;t.previousSibling){var e,r,n,i,c=t.previousSibling,a=c.getAttribute(&quot;data-cfemail&quot;);if(a){for(e=&quot;&quot;,r=parseInt(a.substr(0,2),16),n=2;a.length-n;n+=2)i=parseInt(a.substr(n,2),16)^r,e+=String.fromCharCode(i);e=document.createTextNode(e),c.parentNode.replaceChild(e,c)}}}catch(u){}}();/* ]]&gt; */&lt;/script&gt;\nCodec ID                         : V_MPEG4/ISO/AVC\nBit rate                         : 4 565 Kbps\nWidth                            : 1 920 pixels\nHeight                           : 1 080 pixels\nDisplay aspect ratio             : 16:9\nFrame rate                       : 23.976 fps\n\nAudio 1\nFormat                           : AC-3\nFormat/Info                      : Audio Coding 3\nMode extension                   : CM (complete main)\nCodec ID                         : A_AC3\nBit rate mode                    : Constant\nBit rate                         : 640 Kbps\nChannel(s)                       : 6 channels\nChannel positions                : Front: L C R, Side: L R, LFE\nSampling rate                    : 48.0 KHz\nStream size                      : 473 MiB (11%)\nTitle                            : English\n\nAudio 2\nFormat                           : AC-3\nFormat/Info                      : Audio Coding 3\nMode extension                   : CM (complete main)\nCodec ID                         : A_AC3\nBit rate mode                    : Constant\nBit rate                         : 448 Kbps\nChannel(s)                       : 6 channels\nChannel positions                : Front: L C R, Side: L R, LFE\nSampling rate                    : 48.0 KHz\nStream size                      : 331 MiB (8%)\nTitle                            : Polish\nLanguage                         : Polish\n\nText 1\nFormat                           : UTF-8\nCodec ID                         : S_TEXT/UTF8\nCodec ID/Info                    : UTF-8 Plain Text\nTitle                            : English\n\nText 2\nFormat                           : UTF-8\nCodec ID                         : S_TEXT/UTF8\nCodec ID/Info                    : UTF-8 Plain Text\nTitle                            : Polish\nLanguage                         : Polish\n","torrent":{"xt":"urn:btih:c97ba44b0b19b56cdfa26a65dc0a8da5d1b7aaab","amp;dn":"The+Last+Airbender+%2A2010%2A%5BBluRay%5D%5B1080p%5D%5BENG%2C+POL%5D","amp;tr":["udp%3A%2F%2Ftracker.openbittorrent.com%3A80","udp%3A%2F%2Fopen.demonii.com%3A1337","udp%3A%2F%2Ftracker.coppersurfer.tk%3A6969","udp%3A%2F%2Fexodus.desync.com%3A6969"],"infoHash":"c97ba44b0b19b56cdfa26a65dc0a8da5d1b7aaab","infoHashBuffer":{"type":"Buffer","data":[201,123,164,75,11,25,181,108,223,162,106,101,220,10,141,165,209,183,170,171]},"announce":[],"urlList":[]}}